<?xml version="1.0" standalone="no"?>
<!DOCTYPE svg PUBLIC "-//W3C//DTD SVG 20010904//EN"
 "http://www.w3.org/TR/2001/REC-SVG-20010904/DTD/svg10.dtd">
<svg version="1.0" xmlns="http://www.w3.org/2000/svg"
 width="460.000000pt" height="460.000000pt" viewBox="0 0 460.000000 460.000000"
 preserveAspectRatio="xMidYMid meet">
<metadata>
Created by potrace 1.14, written by Peter Selinger 2001-2017
</metadata>
<g transform="translate(0.000000,460.000000) scale(0.100000,-0.100000)"
fill="#000000" stroke="none">
<path d="M2010 4217 l0 -215 -167 -5 c-148 -4 -176 -7 -233 -30 -91 -35 -120
-49 -120 -59 0 -4 -6 -8 -13 -8 -25 0 -111 -76 -169 -150 -66 -83 -105 -190
-122 -335 -5 -42 5 -136 23 -217 11 -50 63 -162 81 -173 22 -13 8 -24 -47 -35
-158 -31 -231 -62 -353 -147 -67 -47 -121 -102 -181 -184 -63 -87 -88 -135
-126 -244 -26 -75 -28 -90 -28 -245 0 -155 2 -170 28 -245 50 -142 110 -243
198 -335 42 -44 165 -140 179 -140 6 0 27 -11 48 -24 20 -13 51 -27 69 -31 17
-3 36 -12 41 -18 6 -7 12 -79 14 -162 4 -156 19 -228 60 -287 10 -14 18 -30
18 -36 0 -5 13 -25 30 -43 16 -19 30 -37 30 -41 0 -3 25 -23 56 -45 78 -53 73
-50 139 -80 57 -26 68 -28 200 -27 130 0 144 2 195 26 92 44 89 45 121 -56 26
-86 66 -171 95 -205 153 -178 290 -258 483 -281 100 -11 255 -1 316 22 203 75
343 202 426 385 45 100 51 148 56 475 l4 296 37 17 c85 38 158 78 175 96 10
10 22 19 27 19 5 0 20 10 33 23 12 12 38 36 57 53 38 34 120 122 120 129 0 2
17 30 38 62 51 77 84 149 119 258 26 84 28 102 28 255 0 158 -15 272 -37 286
-4 3 -8 16 -8 29 0 22 -92 215 -118 246 -6 8 -36 43 -65 79 -161 194 -413 328
-639 338 l-97 4 17 27 c9 14 24 34 32 43 20 22 73 128 102 203 20 53 23 78 23
210 0 142 -12 221 -37 249 -4 6 -8 19 -8 31 0 11 -11 37 -25 57 -14 20 -25 41
-25 45 0 15 -107 142 -146 174 -53 43 -172 119 -185 119 -10 0 -30 8 -104 40
-22 10 -113 15 -347 18 l-318 4 0 -215z m541 -47 c36 -5 79 -16 95 -25 16 -8
36 -15 45 -15 8 0 25 -9 37 -20 12 -11 25 -20 30 -20 10 0 98 -93 128 -135 91
-131 91 -366 0 -505 -37 -58 -120 -136 -171 -163 -88 -47 -133 -56 -292 -56
l-153 -1 0 475 0 475 108 0 c59 0 137 -5 173 -10z m-601 -790 l0 -370 -109 0
c-59 0 -123 5 -142 11 -98 31 -175 98 -225 196 -26 53 -29 67 -29 158 0 91 3
105 29 156 52 100 123 164 216 192 81 24 88 25 178 26 l82 1 0 -370z m1162
-425 c144 -23 217 -50 318 -119 117 -80 251 -256 281 -371 33 -125 38 -159 38
-225 0 -41 -7 -102 -15 -135 -8 -33 -19 -76 -24 -95 -23 -86 -102 -208 -188
-290 -74 -70 -89 -82 -112 -93 -8 -4 -40 -21 -70 -37 -30 -17 -89 -40 -130
-52 -71 -21 -98 -22 -507 -26 l-433 -3 0 731 0 730 378 0 c278 0 400 -4 464
-15z m-1162 -785 l0 -570 -339 0 c-367 0 -382 2 -500 59 -54 26 -221 179 -221
202 0 6 -8 23 -19 37 -38 55 -66 171 -66 272 0 101 28 217 66 272 11 14 19 30
19 36 0 5 9 20 20 33 78 92 135 138 220 178 108 50 105 50 473 50 l347 1 0
-570z m-2 -982 c-6 -125 -64 -214 -170 -263 -125 -58 -252 -19 -356 109 -19
24 -42 119 -42 176 l0 50 286 0 286 0 -4 -72z m1150 -205 l-3 -278 -32 -66
c-35 -72 -119 -164 -174 -191 -174 -85 -285 -88 -446 -11 -74 34 -156 119
-196 203 l-32 65 -3 278 -3 277 446 0 446 0 -3 -277z"/>
</g>
</svg>
